<svg width="181" height="59" viewBox="0 0 181 59" fill="none" xmlns="http://www.w3.org/2000/svg">
<circle cx="6.83146" cy="44.3393" r="6.83146" fill="#00FFB2"/>
<path d="M25.8501 5.70312H15.8672L33.1628 56.6986H44.0395L25.8501 5.70312Z" fill="#F5FFFC"/>
<path d="M57.4135 23.9624C57.4135 22.3626 57.7412 20.9459 58.3965 19.7123C59.0711 18.4788 59.977 17.5247 61.1143 16.85C62.2707 16.1562 63.5429 15.8092 64.9307 15.8092C66.1835 15.8092 67.2725 16.0598 68.1977 16.5609C69.1422 17.0428 69.8939 17.6499 70.4529 18.3824V16.0694H73.7778V32H70.4529V29.6292C69.8939 30.3809 69.1325 31.0074 68.1688 31.5085C67.2051 32.0096 66.1064 32.2602 64.8728 32.2602C63.5043 32.2602 62.2515 31.9133 61.1143 31.2194C59.977 30.5062 59.0711 29.5232 58.3965 28.2703C57.7412 26.9982 57.4135 25.5622 57.4135 23.9624ZM70.4529 24.0203C70.4529 22.9216 70.2216 21.9675 69.759 21.158C69.3157 20.3484 68.7278 19.7316 67.9953 19.3076C67.2629 18.8835 66.4726 18.6715 65.6245 18.6715C64.7765 18.6715 63.9862 18.8835 63.2537 19.3076C62.5213 19.7123 61.9238 20.3195 61.4612 21.129C61.0179 21.9193 60.7962 22.8638 60.7962 23.9624C60.7962 25.0611 61.0179 26.0248 61.4612 26.8536C61.9238 27.6825 62.5213 28.3185 63.2537 28.7618C64.0055 29.1859 64.7957 29.3979 65.6245 29.3979C66.4726 29.3979 67.2629 29.1859 67.9953 28.7618C68.7278 28.3378 69.3157 27.721 69.759 26.9115C70.2216 26.0827 70.4529 25.1189 70.4529 24.0203ZM81.4029 18.4113C81.9619 17.6789 82.7232 17.0621 83.6869 16.5609C84.6507 16.0598 85.7397 15.8092 86.954 15.8092C88.3418 15.8092 89.6043 16.1562 90.7415 16.85C91.898 17.5247 92.8039 18.4788 93.4592 19.7123C94.1146 20.9459 94.4423 22.3626 94.4423 23.9624C94.4423 25.5622 94.1146 26.9982 93.4592 28.2703C92.8039 29.5232 91.898 30.5062 90.7415 31.2194C89.6043 31.9133 88.3418 32.2602 86.954 32.2602C85.7397 32.2602 84.6603 32.0193 83.7159 31.5374C82.7714 31.0363 82.0004 30.4195 81.4029 29.687V39.575H78.1069V16.0694H81.4029V18.4113ZM91.0884 23.9624C91.0884 22.8638 90.8572 21.9193 90.3946 21.129C89.9512 20.3195 89.3537 19.7123 88.602 19.3076C87.8696 18.8835 87.0793 18.6715 86.2312 18.6715C85.4024 18.6715 84.6121 18.8835 83.8604 19.3076C83.128 19.7316 82.5305 20.3484 82.0679 21.158C81.6245 21.9675 81.4029 22.9216 81.4029 24.0203C81.4029 25.1189 81.6245 26.0827 82.0679 26.9115C82.5305 27.721 83.128 28.3378 83.8604 28.7618C84.6121 29.1859 85.4024 29.3979 86.2312 29.3979C87.0793 29.3979 87.8696 29.1859 88.602 28.7618C89.3537 28.3185 89.9512 27.6825 90.3946 26.8536C90.8572 26.0248 91.0884 25.0611 91.0884 23.9624ZM105.739 15.8092C106.992 15.8092 108.11 16.0694 109.093 16.5898C110.095 17.1103 110.876 17.8812 111.435 18.9028C111.994 19.9244 112.273 21.158 112.273 22.6036V32H109.006V23.0951C109.006 21.6687 108.65 20.5797 107.937 19.828C107.223 19.057 106.25 18.6715 105.016 18.6715C103.783 18.6715 102.8 19.057 102.067 19.828C101.354 20.5797 100.998 21.6687 100.998 23.0951V32H97.7016V16.0694H100.998V17.8909C101.537 17.2355 102.222 16.7248 103.05 16.3585C103.898 15.9923 104.795 15.8092 105.739 15.8092ZM118.154 13.9588C117.557 13.9588 117.056 13.7564 116.651 13.3517C116.246 12.9469 116.044 12.4458 116.044 11.8482C116.044 11.2507 116.246 10.7496 116.651 10.3448C117.056 9.94005 117.557 9.73766 118.154 9.73766C118.733 9.73766 119.224 9.94005 119.629 10.3448C120.034 10.7496 120.236 11.2507 120.236 11.8482C120.236 12.4458 120.034 12.9469 119.629 13.3517C119.224 13.7564 118.733 13.9588 118.154 13.9588ZM119.774 16.0694V32H116.478V16.0694H119.774ZM137.394 32.2602C136.141 32.2602 135.013 32.0385 134.011 31.5952C133.028 31.1326 132.247 30.5158 131.669 29.7449C131.091 28.9546 130.782 28.0776 130.744 27.1139H134.156C134.213 27.7885 134.531 28.3571 135.11 28.8197C135.707 29.263 136.449 29.4846 137.336 29.4846C138.261 29.4846 138.974 29.3112 139.475 28.9642C139.996 28.598 140.256 28.1354 140.256 27.5764C140.256 26.9789 139.967 26.5356 139.389 26.2465C138.83 25.9574 137.933 25.6393 136.7 25.2924C135.505 24.9647 134.531 24.6467 133.78 24.3383C133.028 24.0299 132.373 23.5577 131.814 22.9216C131.274 22.2855 131.004 21.4471 131.004 20.4062C131.004 19.5581 131.255 18.7872 131.756 18.0933C132.257 17.3801 132.97 16.8211 133.895 16.4164C134.84 16.0116 135.919 15.8092 137.133 15.8092C138.945 15.8092 140.401 16.2718 141.499 17.197C142.617 18.1029 143.215 19.3461 143.292 20.9267H139.996C139.938 20.2135 139.649 19.6449 139.128 19.2208C138.608 18.7968 137.904 18.5848 137.018 18.5848C136.15 18.5848 135.485 18.7486 135.023 19.0763C134.56 19.4039 134.329 19.8376 134.329 20.3773C134.329 20.8014 134.483 21.158 134.792 21.4471C135.1 21.7362 135.476 21.9675 135.919 22.141C136.362 22.2952 137.018 22.4975 137.885 22.7481C139.042 23.0565 139.986 23.3745 140.719 23.7022C141.47 24.0106 142.116 24.4732 142.656 25.09C143.195 25.7068 143.475 26.526 143.494 27.5475C143.494 28.4534 143.244 29.263 142.742 29.9762C142.241 30.6893 141.528 31.2483 140.603 31.6531C139.697 32.0578 138.627 32.2602 137.394 32.2602ZM161.656 23.6444C161.656 24.2419 161.618 24.7816 161.541 25.2635H149.369C149.465 26.5356 149.937 27.5572 150.785 28.3282C151.633 29.0991 152.674 29.4846 153.908 29.4846C155.681 29.4846 156.934 28.7426 157.666 27.2584H161.222C160.741 28.7233 159.864 29.928 158.591 30.8724C157.339 31.7976 155.777 32.2602 153.908 32.2602C152.385 32.2602 151.017 31.9229 149.802 31.2483C148.607 30.5544 147.663 29.5907 146.969 28.3571C146.294 27.1042 145.957 25.6586 145.957 24.0203C145.957 22.3819 146.285 20.9459 146.94 19.7123C147.615 18.4595 148.549 17.4957 149.744 16.8211C150.959 16.1465 152.346 15.8092 153.908 15.8092C155.411 15.8092 156.751 16.1369 157.927 16.7922C159.102 17.4476 160.018 18.3728 160.673 19.5678C161.329 20.7435 161.656 22.1024 161.656 23.6444ZM158.216 22.6036C158.196 21.3892 157.763 20.4159 156.915 19.6834C156.066 18.951 155.016 18.5848 153.763 18.5848C152.626 18.5848 151.653 18.951 150.843 19.6834C150.033 20.3966 149.552 21.37 149.397 22.6036H158.216ZM163.801 24.0203C163.801 22.3819 164.129 20.9459 164.784 19.7123C165.459 18.4595 166.384 17.4957 167.56 16.8211C168.735 16.1465 170.085 15.8092 171.607 15.8092C173.535 15.8092 175.125 16.2718 176.378 17.197C177.65 18.1029 178.508 19.4039 178.951 21.1001H175.395C175.106 20.3099 174.643 19.6931 174.007 19.2498C173.371 18.8064 172.571 18.5848 171.607 18.5848C170.258 18.5848 169.179 19.0666 168.369 20.0304C167.579 20.9748 167.184 22.3048 167.184 24.0203C167.184 25.7357 167.579 27.0753 168.369 28.039C169.179 29.0028 170.258 29.4846 171.607 29.4846C173.516 29.4846 174.778 28.6462 175.395 26.9693H178.951C178.488 28.5884 177.621 29.8798 176.349 30.8435C175.077 31.788 173.496 32.2602 171.607 32.2602C170.085 32.2602 168.735 31.9229 167.56 31.2483C166.384 30.5544 165.459 29.5907 164.784 28.3571C164.129 27.1042 163.801 25.6586 163.801 24.0203Z" fill="#F5FFFC"/>
<path d="M59.8354 53.3806C59.2853 53.3806 58.7991 53.2849 58.3766 53.0936C57.962 52.9023 57.6352 52.6352 57.396 52.2924C57.1569 51.9496 57.0293 51.567 57.0134 51.1445H57.8983C57.9381 51.5511 58.1175 51.9098 58.4363 52.2207C58.7552 52.5236 59.2216 52.6751 59.8354 52.6751C60.4014 52.6751 60.8478 52.5316 61.1747 52.2446C61.5095 51.9496 61.6769 51.579 61.6769 51.1325C61.6769 50.7738 61.5852 50.4868 61.4019 50.2716C61.2185 50.0484 60.9913 49.8849 60.7203 49.7813C60.4492 49.6697 60.0746 49.5501 59.5962 49.4226C59.0382 49.2711 58.5958 49.1236 58.2689 48.9801C57.9421 48.8367 57.6631 48.6134 57.4319 48.3105C57.2007 48.0076 57.0851 47.597 57.0851 47.0789C57.0851 46.6484 57.1967 46.2657 57.4199 45.9309C57.6432 45.5881 57.958 45.3211 58.3646 45.1298C58.7712 44.9384 59.2375 44.8428 59.7637 44.8428C60.5369 44.8428 61.1587 45.0341 61.6291 45.4168C62.1074 45.7914 62.3824 46.2777 62.4541 46.8756H61.5453C61.4895 46.5328 61.3022 46.2299 60.9833 45.9668C60.6645 45.6958 60.234 45.5602 59.6919 45.5602C59.1897 45.5602 58.7712 45.6958 58.4363 45.9668C58.1015 46.2299 57.9341 46.5926 57.9341 47.055C57.9341 47.4057 58.0258 47.6887 58.2092 47.904C58.3925 48.1192 58.6197 48.2826 58.8907 48.3942C59.1698 48.5058 59.5444 48.6254 60.0148 48.7529C60.5568 48.9044 60.9953 49.0559 61.3301 49.2073C61.6649 49.3508 61.9479 49.574 62.1791 49.877C62.4103 50.1799 62.5259 50.5865 62.5259 51.0967C62.5259 51.4873 62.4222 51.858 62.215 52.2087C62.0077 52.5595 61.7008 52.8425 61.2942 53.0577C60.8877 53.273 60.4014 53.3806 59.8354 53.3806ZM64.9804 45.62V48.741H68.1492V49.4345H64.9804V52.6033H68.5079V53.2969H64.1433V44.9265H68.5079V45.62H64.9804ZM69.7746 49.1117C69.7746 48.2906 69.9539 47.5572 70.3127 46.9115C70.6714 46.2578 71.1617 45.7516 71.7835 45.3928C72.4053 45.0261 73.0988 44.8428 73.8641 44.8428C74.7968 44.8428 75.594 45.066 76.2557 45.5124C76.9253 45.9509 77.4116 46.5727 77.7145 47.3778H76.734C76.4948 46.8118 76.1281 46.3694 75.6339 46.0505C75.1476 45.7316 74.5577 45.5722 73.8641 45.5722C73.2503 45.5722 72.6962 45.7157 72.202 46.0027C71.7157 46.2897 71.3331 46.7042 71.0541 47.2463C70.775 47.7804 70.6355 48.4022 70.6355 49.1117C70.6355 49.8212 70.775 50.443 71.0541 50.9771C71.3331 51.5112 71.7157 51.9217 72.202 52.2087C72.6962 52.4957 73.2503 52.6392 73.8641 52.6392C74.5577 52.6392 75.1476 52.4838 75.6339 52.1729C76.1281 51.854 76.4948 51.4155 76.734 50.8575H77.7145C77.4116 51.6547 76.9253 52.2725 76.2557 52.7109C75.586 53.1494 74.7888 53.3686 73.8641 53.3686C73.0988 53.3686 72.4053 53.1893 71.7835 52.8305C71.1617 52.4638 70.6714 51.9576 70.3127 51.3119C69.9539 50.6662 69.7746 49.9328 69.7746 49.1117ZM85.0384 46.768V53.2969H84.2014V52.1489C84.01 52.5555 83.7151 52.8664 83.3165 53.0816C82.9179 53.2969 82.4715 53.4045 81.9772 53.4045C81.196 53.4045 80.5582 53.1653 80.064 52.687C79.5697 52.2008 79.3226 51.4992 79.3226 50.5825V46.768H80.1477V50.4868C80.1477 51.1963 80.3231 51.7384 80.6738 52.1131C81.0326 52.4877 81.5188 52.6751 82.1327 52.6751C82.7624 52.6751 83.2647 52.4758 83.6393 52.0772C84.014 51.6786 84.2014 51.0927 84.2014 50.3194V46.768H85.0384ZM87.7864 47.9279C87.9698 47.5213 88.2488 47.2064 88.6235 46.9832C89.0061 46.76 89.4725 46.6484 90.0225 46.6484V47.5213H89.7953C89.1895 47.5213 88.7032 47.6847 88.3365 48.0116C87.9698 48.3384 87.7864 48.8845 87.7864 49.6498V53.2969H86.9494V46.768H87.7864V47.9279ZM91.7002 45.5363C91.5328 45.5363 91.3893 45.4765 91.2698 45.357C91.1502 45.2374 91.0904 45.0899 91.0904 44.9145C91.0904 44.7391 91.1502 44.5957 91.2698 44.4841C91.3893 44.3645 91.5328 44.3047 91.7002 44.3047C91.8676 44.3047 92.0111 44.3645 92.1307 44.4841C92.2503 44.5957 92.3101 44.7391 92.3101 44.9145C92.3101 45.0899 92.2503 45.2374 92.1307 45.357C92.0111 45.4765 91.8676 45.5363 91.7002 45.5363ZM92.1188 46.768V53.2969H91.2817V46.768H92.1188ZM95.1024 47.4735V51.5271C95.1024 51.9257 95.1781 52.2008 95.3296 52.3522C95.481 52.5037 95.7481 52.5794 96.1307 52.5794H96.896V53.2969H95.9992C95.4093 53.2969 94.9709 53.1614 94.6839 52.8903C94.3969 52.6113 94.2534 52.1569 94.2534 51.5271V47.4735H93.3446V46.768H94.2534V45.1298H95.1024V46.768H96.896V47.4735H95.1024ZM103.657 46.768L99.7832 56.37H98.9103L100.178 53.261L97.4993 46.768H98.42L100.644 52.3403L102.797 46.768H103.657ZM107.691 50.0205C107.691 49.3508 107.823 48.7649 108.086 48.2627C108.357 47.7525 108.728 47.3619 109.198 47.0908C109.676 46.8118 110.214 46.6723 110.812 46.6723C111.434 46.6723 111.968 46.8158 112.415 47.1028C112.869 47.3898 113.196 47.7565 113.395 48.2029V46.768H114.232V53.2969H113.395V51.85C113.188 52.2964 112.857 52.6671 112.403 52.9621C111.956 53.249 111.422 53.3925 110.8 53.3925C110.21 53.3925 109.676 53.253 109.198 52.974C108.728 52.695 108.357 52.3004 108.086 51.7902C107.823 51.28 107.691 50.6901 107.691 50.0205ZM113.395 50.0324C113.395 49.5063 113.287 49.0439 113.072 48.6453C112.857 48.2467 112.562 47.9398 112.187 47.7246C111.821 47.5093 111.414 47.4017 110.968 47.4017C110.505 47.4017 110.091 47.5054 109.724 47.7126C109.357 47.9199 109.066 48.2228 108.851 48.6214C108.644 49.012 108.54 49.4784 108.54 50.0205C108.54 50.5546 108.644 51.0249 108.851 51.4315C109.066 51.8301 109.357 52.137 109.724 52.3522C110.091 52.5595 110.505 52.6631 110.968 52.6631C111.414 52.6631 111.821 52.5555 112.187 52.3403C112.562 52.125 112.857 51.8181 113.072 51.4195C113.287 51.0209 113.395 50.5586 113.395 50.0324ZM118.391 53.3925C117.642 53.3925 117.028 53.2211 116.55 52.8784C116.079 52.5276 115.816 52.0533 115.76 51.4554H116.621C116.661 51.8221 116.833 52.121 117.135 52.3522C117.446 52.5754 117.861 52.687 118.379 52.687C118.833 52.687 119.188 52.5794 119.443 52.3642C119.706 52.1489 119.838 51.8819 119.838 51.563C119.838 51.3398 119.766 51.1564 119.623 51.013C119.479 50.8695 119.296 50.7579 119.073 50.6781C118.857 50.5904 118.562 50.4988 118.188 50.4031C117.701 50.2756 117.307 50.148 117.004 50.0205C116.701 49.8929 116.442 49.7056 116.227 49.4585C116.019 49.2034 115.916 48.8646 115.916 48.442C115.916 48.1232 116.011 47.8282 116.203 47.5572C116.394 47.2861 116.665 47.0709 117.016 46.9115C117.367 46.752 117.765 46.6723 118.212 46.6723C118.913 46.6723 119.479 46.8517 119.91 47.2104C120.34 47.5612 120.571 48.0474 120.603 48.6692H119.766C119.742 48.2866 119.591 47.9797 119.312 47.7485C119.041 47.5093 118.666 47.3898 118.188 47.3898C117.765 47.3898 117.422 47.4894 117.159 47.6887C116.896 47.888 116.765 48.1351 116.765 48.4301C116.765 48.6852 116.841 48.8964 116.992 49.0638C117.151 49.2233 117.347 49.3508 117.578 49.4465C117.809 49.5342 118.12 49.6338 118.511 49.7454C118.981 49.873 119.356 49.9966 119.635 50.1161C119.914 50.2357 120.153 50.4111 120.352 50.6423C120.551 50.8734 120.655 51.1804 120.663 51.563C120.663 51.9138 120.567 52.2287 120.376 52.5077C120.185 52.7787 119.918 52.9939 119.575 53.1534C119.232 53.3128 118.837 53.3925 118.391 53.3925ZM125.137 50.0205C125.137 49.3508 125.269 48.7649 125.532 48.2627C125.803 47.7525 126.174 47.3619 126.644 47.0908C127.122 46.8118 127.66 46.6723 128.258 46.6723C128.88 46.6723 129.414 46.8158 129.861 47.1028C130.315 47.3898 130.642 47.7565 130.841 48.2029V46.768H131.678V53.2969H130.841V51.85C130.634 52.2964 130.303 52.6671 129.849 52.9621C129.402 53.249 128.868 53.3925 128.246 53.3925C127.656 53.3925 127.122 53.253 126.644 52.974C126.174 52.695 125.803 52.3004 125.532 51.7902C125.269 51.28 125.137 50.6901 125.137 50.0205ZM130.841 50.0324C130.841 49.5063 130.734 49.0439 130.518 48.6453C130.303 48.2467 130.008 47.9398 129.633 47.7246C129.267 47.5093 128.86 47.4017 128.414 47.4017C127.951 47.4017 127.537 47.5054 127.17 47.7126C126.803 47.9199 126.512 48.2228 126.297 48.6214C126.09 49.012 125.986 49.4784 125.986 50.0205C125.986 50.5546 126.09 51.0249 126.297 51.4315C126.512 51.8301 126.803 52.137 127.17 52.3522C127.537 52.5595 127.951 52.6631 128.414 52.6631C128.86 52.6631 129.267 52.5555 129.633 52.3403C130.008 52.125 130.303 51.8181 130.518 51.4195C130.734 51.0209 130.841 50.5586 130.841 50.0324ZM139.405 53.3806C138.855 53.3806 138.369 53.2849 137.947 53.0936C137.532 52.9023 137.205 52.6352 136.966 52.2924C136.727 51.9496 136.599 51.567 136.583 51.1445H137.468C137.508 51.5511 137.688 51.9098 138.006 52.2207C138.325 52.5236 138.792 52.6751 139.405 52.6751C139.971 52.6751 140.418 52.5316 140.745 52.2446C141.08 51.9496 141.247 51.579 141.247 51.1325C141.247 50.7738 141.155 50.4868 140.972 50.2716C140.789 50.0484 140.561 49.8849 140.29 49.7813C140.019 49.6697 139.645 49.5501 139.166 49.4226C138.608 49.2711 138.166 49.1236 137.839 48.9801C137.512 48.8367 137.233 48.6134 137.002 48.3105C136.771 48.0076 136.655 47.597 136.655 47.0789C136.655 46.6484 136.767 46.2657 136.99 45.9309C137.213 45.5881 137.528 45.3211 137.935 45.1298C138.341 44.9384 138.808 44.8428 139.334 44.8428C140.107 44.8428 140.729 45.0341 141.199 45.4168C141.677 45.7914 141.952 46.2777 142.024 46.8756H141.115C141.06 46.5328 140.872 46.2299 140.553 45.9668C140.235 45.6958 139.804 45.5602 139.262 45.5602C138.76 45.5602 138.341 45.6958 138.006 45.9668C137.672 46.2299 137.504 46.5926 137.504 47.055C137.504 47.4057 137.596 47.6887 137.779 47.904C137.963 48.1192 138.19 48.2826 138.461 48.3942C138.74 48.5058 139.114 48.6254 139.585 48.7529C140.127 48.9044 140.565 49.0559 140.9 49.2073C141.235 49.3508 141.518 49.574 141.749 49.877C141.98 50.1799 142.096 50.5865 142.096 51.0967C142.096 51.4873 141.992 51.858 141.785 52.2087C141.578 52.5595 141.271 52.8425 140.864 53.0577C140.458 53.273 139.971 53.3806 139.405 53.3806ZM149.621 49.6976C149.621 49.9846 149.613 50.2038 149.597 50.3553H144.18C144.204 50.8495 144.323 51.272 144.539 51.6228C144.754 51.9736 145.037 52.2406 145.387 52.424C145.738 52.5993 146.121 52.687 146.535 52.687C147.078 52.687 147.532 52.5555 147.899 52.2924C148.273 52.0294 148.52 51.6746 148.64 51.2282H149.525C149.365 51.8659 149.023 52.3881 148.497 52.7947C147.978 53.1932 147.325 53.3925 146.535 53.3925C145.922 53.3925 145.372 53.257 144.885 52.986C144.399 52.707 144.016 52.3163 143.737 51.8141C143.466 51.3039 143.331 50.71 143.331 50.0324C143.331 49.3548 143.466 48.7609 143.737 48.2507C144.008 47.7405 144.387 47.3499 144.873 47.0789C145.36 46.8078 145.914 46.6723 146.535 46.6723C147.157 46.6723 147.699 46.8078 148.162 47.0789C148.632 47.3499 148.991 47.7166 149.238 48.179C149.493 48.6334 149.621 49.1396 149.621 49.6976ZM148.772 49.6737C148.779 49.1874 148.68 48.7729 148.473 48.4301C148.273 48.0873 147.998 47.8282 147.648 47.6528C147.297 47.4775 146.914 47.3898 146.5 47.3898C145.878 47.3898 145.348 47.5891 144.909 47.9877C144.471 48.3862 144.228 48.9483 144.18 49.6737H148.772ZM151.989 47.9279C152.172 47.5213 152.451 47.2064 152.826 46.9832C153.209 46.76 153.675 46.6484 154.225 46.6484V47.5213H153.998C153.392 47.5213 152.906 47.6847 152.539 48.0116C152.172 48.3384 151.989 48.8845 151.989 49.6498V53.2969H151.152V46.768H151.989V47.9279ZM157.804 52.4838L160.004 46.768H160.889L158.27 53.2969H157.326L154.707 46.768H155.604L157.804 52.4838ZM162.442 45.5363C162.275 45.5363 162.131 45.4765 162.012 45.357C161.892 45.2374 161.832 45.0899 161.832 44.9145C161.832 44.7391 161.892 44.5957 162.012 44.4841C162.131 44.3645 162.275 44.3047 162.442 44.3047C162.61 44.3047 162.753 44.3645 162.873 44.4841C162.992 44.5957 163.052 44.7391 163.052 44.9145C163.052 45.0899 162.992 45.2374 162.873 45.357C162.753 45.4765 162.61 45.5363 162.442 45.5363ZM162.861 46.768V53.2969H162.024V46.768H162.861ZM164.374 50.0324C164.374 49.3548 164.509 48.7649 164.78 48.2627C165.051 47.7525 165.426 47.3619 165.904 47.0908C166.382 46.8118 166.928 46.6723 167.542 46.6723C168.347 46.6723 169.009 46.8716 169.527 47.2702C170.053 47.6688 170.392 48.2109 170.544 48.8964H169.647C169.535 48.4261 169.292 48.0594 168.917 47.7963C168.551 47.5253 168.092 47.3898 167.542 47.3898C167.104 47.3898 166.709 47.4894 166.358 47.6887C166.008 47.888 165.729 48.187 165.521 48.5855C165.322 48.9762 165.223 49.4585 165.223 50.0324C165.223 50.6064 165.322 51.0927 165.521 51.4913C165.729 51.8899 166.008 52.1888 166.358 52.3881C166.709 52.5874 167.104 52.687 167.542 52.687C168.092 52.687 168.551 52.5555 168.917 52.2924C169.292 52.0214 169.535 51.6467 169.647 51.1684H170.544C170.392 51.838 170.053 52.3761 169.527 52.7827C169.001 53.1893 168.339 53.3925 167.542 53.3925C166.928 53.3925 166.382 53.257 165.904 52.986C165.426 52.707 165.051 52.3163 164.78 51.8141C164.509 51.3039 164.374 50.71 164.374 50.0324ZM177.997 49.6976C177.997 49.9846 177.989 50.2038 177.973 50.3553H172.556C172.58 50.8495 172.699 51.272 172.915 51.6228C173.13 51.9736 173.413 52.2406 173.764 52.424C174.114 52.5993 174.497 52.687 174.912 52.687C175.454 52.687 175.908 52.5555 176.275 52.2924C176.649 52.0294 176.897 51.6746 177.016 51.2282H177.901C177.742 51.8659 177.399 52.3881 176.873 52.7947C176.355 53.1932 175.701 53.3925 174.912 53.3925C174.298 53.3925 173.748 53.257 173.261 52.986C172.775 52.707 172.393 52.3163 172.114 51.8141C171.842 51.3039 171.707 50.71 171.707 50.0324C171.707 49.3548 171.842 48.7609 172.114 48.2507C172.385 47.7405 172.763 47.3499 173.249 47.0789C173.736 46.8078 174.29 46.6723 174.912 46.6723C175.533 46.6723 176.075 46.8078 176.538 47.0789C177.008 47.3499 177.367 47.7166 177.614 48.179C177.869 48.6334 177.997 49.1396 177.997 49.6976ZM177.148 49.6737C177.156 49.1874 177.056 48.7729 176.849 48.4301C176.649 48.0873 176.374 47.8282 176.024 47.6528C175.673 47.4775 175.29 47.3898 174.876 47.3898C174.254 47.3898 173.724 47.5891 173.285 47.9877C172.847 48.3862 172.604 48.9483 172.556 49.6737H177.148Z" fill="#F5FFFC"/>
</svg>
